<mxfile host="app.diagrams.net" modified="2024-07-04T06:17:01.753Z" agent="Mozilla/5.0 (Macintosh; Intel Mac OS X 10_15_7) AppleWebKit/537.36 (KHTML, like Gecko) Chrome/126.0.0.0 Safari/537.36" etag="FupqPTopTglvef-NVPvC" version="24.6.3" type="github">
  <diagram name="第 1 页" id="hD5VJrIIW-oPZ-sE8mMR">
    <mxGraphModel dx="1381" dy="732" grid="1" gridSize="10" guides="1" tooltips="1" connect="1" arrows="1" fold="1" page="1" pageScale="1" pageWidth="1600" pageHeight="1200" math="0" shadow="0">
      <root>
        <mxCell id="0" />
        <mxCell id="1" parent="0" />
        <mxCell id="Bd_30c_2kfmLjfsX3W71-1" value="服务部署" style="rounded=0;whiteSpace=wrap;html=1;" vertex="1" parent="1">
          <mxGeometry x="360" y="560" width="120" height="40" as="geometry" />
        </mxCell>
        <mxCell id="Bd_30c_2kfmLjfsX3W71-6" value="项目启动" style="rounded=0;whiteSpace=wrap;html=1;" vertex="1" parent="1">
          <mxGeometry x="560" y="480" width="120" height="40" as="geometry" />
        </mxCell>
        <mxCell id="Bd_30c_2kfmLjfsX3W71-13" style="rounded=0;orthogonalLoop=1;jettySize=auto;html=1;exitX=1;exitY=0.5;exitDx=0;exitDy=0;entryX=0;entryY=0.5;entryDx=0;entryDy=0;" edge="1" parent="1" source="Bd_30c_2kfmLjfsX3W71-7" target="Bd_30c_2kfmLjfsX3W71-8">
          <mxGeometry relative="1" as="geometry" />
        </mxCell>
        <mxCell id="Bd_30c_2kfmLjfsX3W71-15" style="edgeStyle=orthogonalEdgeStyle;rounded=0;orthogonalLoop=1;jettySize=auto;html=1;exitX=1;exitY=0.5;exitDx=0;exitDy=0;" edge="1" parent="1" source="Bd_30c_2kfmLjfsX3W71-7" target="Bd_30c_2kfmLjfsX3W71-14">
          <mxGeometry relative="1" as="geometry" />
        </mxCell>
        <mxCell id="Bd_30c_2kfmLjfsX3W71-7" value="缓存数据" style="rounded=0;whiteSpace=wrap;html=1;" vertex="1" parent="1">
          <mxGeometry x="560" y="640" width="120" height="40" as="geometry" />
        </mxCell>
        <mxCell id="Bd_30c_2kfmLjfsX3W71-8" value="查询_配置列表" style="rounded=0;whiteSpace=wrap;html=1;" vertex="1" parent="1">
          <mxGeometry x="760" y="560" width="120" height="40" as="geometry" />
        </mxCell>
        <mxCell id="Bd_30c_2kfmLjfsX3W71-16" style="rounded=0;orthogonalLoop=1;jettySize=auto;html=1;exitX=0;exitY=0;exitDx=0;exitDy=52.5;exitPerimeter=0;entryX=1;entryY=0.5;entryDx=0;entryDy=0;" edge="1" parent="1" source="Bd_30c_2kfmLjfsX3W71-11" target="Bd_30c_2kfmLjfsX3W71-8">
          <mxGeometry relative="1" as="geometry" />
        </mxCell>
        <mxCell id="Bd_30c_2kfmLjfsX3W71-11" value="Nacos" style="shape=cylinder3;whiteSpace=wrap;html=1;boundedLbl=1;backgroundOutline=1;size=15;fillColor=#dae8fc;strokeColor=#6c8ebf;" vertex="1" parent="1">
          <mxGeometry x="1140" y="450" width="60" height="80" as="geometry" />
        </mxCell>
        <mxCell id="Bd_30c_2kfmLjfsX3W71-12" style="rounded=0;orthogonalLoop=1;jettySize=auto;html=1;exitX=1;exitY=0.5;exitDx=0;exitDy=0;entryX=0;entryY=0;entryDx=0;entryDy=52.5;entryPerimeter=0;" edge="1" parent="1" source="Bd_30c_2kfmLjfsX3W71-8" target="Bd_30c_2kfmLjfsX3W71-11">
          <mxGeometry relative="1" as="geometry" />
        </mxCell>
        <mxCell id="Bd_30c_2kfmLjfsX3W71-14" value="查询_数据key" style="rounded=0;whiteSpace=wrap;html=1;" vertex="1" parent="1">
          <mxGeometry x="760" y="640" width="120" height="40" as="geometry" />
        </mxCell>
      </root>
    </mxGraphModel>
  </diagram>
</mxfile>
